<?xml version="1.0" encoding="UTF-8"?> <svg xmlns="http://www.w3.org/2000/svg" id="Layer_1" data-name="Layer 1" viewBox="0 0 141.79 149.5"><defs><style>.cls-1{fill:#d5a10f;}.cls-2{fill:#ed1b2e;}.cls-3{fill:#fff;}.cls-4{fill:none;stroke:#fff;stroke-width:0.46px;}</style></defs><title>straw-square-header-logo-04082019</title><path class="cls-1" d="M106.35,57.75l2.49-2.61c.66-.86,12.38-12,3-27.91a40.29,40.29,0,0,0-7-8.66c-2.53-2.56-3.94-4-5.49-5.58,0,0,2.1,4-2.2,9.09-2.56,3.09-7.58,8.37-7.58,8.37L80.35,39.9s-18.84-19.43-21.41-22C52.87,11,47.88,7.5,50.28,1.6c0,0-.07-.37-.33,0-.76.89-2.05,2.12-3.41,3.55C43.68,7.57,43,10,43.38,12.17c1,3.94,5.33,7.53,9.59,12C57.9,29.37,62.49,34,62.49,34L57.4,39.41S52.45,34.29,47,28.81c-6.33-6.21-10.11-11-8-15.3,0,0-2.47,2.2-5.15,4.93C29,23.31,22.7,31.21,23,40.66c0,0-.1,8.76,8.41,16.31L48,74.11c4.8,5,8.87,9.38,10.17,10.31a17.84,17.84,0,0,0,11.36,4.23,17.23,17.23,0,0,0,11.26-4.2,77.23,77.23,0,0,0,7.65-7.78c3.41-3.61,7.49-7.9,11-11.62C102.36,62,104.61,59.53,106.35,57.75Zm-4.54-29.49c1.53,1.25,6.11,5.83,5.54,12.22a12.81,12.81,0,0,1-4.09,8.3c.41-1.44,1.76-3.57.13-7.4-.83-2-3.74-5.19-5.57-6.91C97.82,34.47,101.89,30.67,101.81,28.26ZM68.75,40.49l5.62,5.72-5.13,5.43-5.59-5.83Zm-23,19.7c-.9-.77-8-7.91-10.16-10.34s-9.14-11.53.8-21.33a6.81,6.81,0,0,0,1.49,3.29c1.32,1.57,3.39,3.58,5.41,5.66l8.05,8.33c-.38.39-1.64,1.67-3.05,3.19C45,52.71,43.18,55.74,45.76,60.19ZM58.09,72.83a26.9,26.9,0,0,1-3.74-3.68c-1.69-1.89-3.55-3.61-3.68-6.92s2.5-5.29,3.71-6.6c1.38-1.41,2.43-2.5,3.19-3.32L63.18,58s-1.51,1.51-3.55,3.91C57.07,64.85,55.34,68.27,58.09,72.83Zm11.29,7.91a7,7,0,0,1-6.92-7.25C62.57,71.61,64,70,65.54,68.2a43.18,43.18,0,0,1,3.81-3.77s2.25,2,3.78,3.67c1.66,1.87,3.11,3.55,3.11,5.39C76.24,77,73.32,80.74,69.38,80.74Zm11.3-8.27a8.43,8.43,0,0,0,.49-7.58,21.82,21.82,0,0,0-3.71-4.83c-1.07-1.12-2-2.07-2-2.07l5.18-5.32s1.1,1.28,2.53,2.73c2,2.05,4.6,4.23,4.37,7C87.7,66.69,82.19,70.7,80.68,72.47ZM97.34,54.85A25.64,25.64,0,0,1,94,58.59c-1,1-1.88,2-2.14,2.2.14-.61,3.09-4.43-.4-9.29a47.33,47.33,0,0,0-4.79-5.25l2.62-2.67,2.49-2.76c.68.7,2.4,2.54,3.91,4.11s2.82,2.88,2.9,5A7.78,7.78,0,0,1,97.34,54.85Z" transform="translate(-1.11 -1.36)"></path><path class="cls-2" d="M73.86,22.76s5.85-6.14,8.79-9.3c5.5-5.53,6-9,4.68-12.1,0,0,6.47,4.88,6.73,8.41.17,3-2.38,6.85-6,10.52-1.16,1.24-8.12,8.53-8.12,8.53Z" transform="translate(-1.11 -1.36)"></path><path class="cls-3" d="M3.89,109.58a2.78,2.78,0,0,1,2.29-4.41,3.63,3.63,0,0,1,3.25,2h.42V104.9c-2.27-.91-6.4-1-7.68,1s-.87,4.6,1.55,6.35,4.58,1.67,4.8,4.08-1,3.72-3.6,3.7A3.51,3.51,0,0,1,1.6,117.8H1.11v2.42a16.81,16.81,0,0,0,5.36.71A4.34,4.34,0,0,0,10,114.21C8.2,111.7,5.14,111.42,3.89,109.58Z" transform="translate(-1.11 -1.36)"></path><path class="cls-3" d="M31.16,131.36A2.78,2.78,0,0,1,33.45,127a3.64,3.64,0,0,1,3.25,2h.41v-2.27c-2.26-.91-6.4-1-7.68,1s-.86,4.6,1.55,6.35,4.58,1.67,4.81,4.09-1,3.71-3.6,3.69a3.51,3.51,0,0,1-3.32-2.22h-.5V142a16.92,16.92,0,0,0,5.37.71A4.34,4.34,0,0,0,37.29,136C35.47,133.48,32.41,133.21,31.16,131.36Z" transform="translate(-1.11 -1.36)"></path><path class="cls-3" d="M12.85,108.35h.47c0-.57.15-1.33.93-1.33h3.92v12.06c0,1-.12,1.14-.91,1.14v.36h3.86v-.36c-.79,0-.91-.1-.91-1.14V107h3.91c.79,0,.89.76.94,1.33h.47V106H12.85Z" transform="translate(-1.11 -1.36)"></path><path class="cls-3" d="M37.57,119.28c-.94-1.08-4-5.54-4-5.54a4.13,4.13,0,0,0,3-3A3.64,3.64,0,0,0,33,106H26.76v.36s1.13.08,1.11.84,0,11.06,0,11.92-.25,1.09-1,1.09v.36h4.31v-.36A1.11,1.11,0,0,1,30,119.08c-.05-1.16,0-12.14,0-12.14h2.33c1,0,2.24.72,2.12,2.81s-1.08,3.15-2.09,3.2a6.78,6.78,0,0,1-1.26,0v.47l4.41,7.16H39.1v-.36S38.5,120.36,37.57,119.28Z" transform="translate(-1.11 -1.36)"></path><path class="cls-3" d="M114.3,119.28c-.94-1.08-4-5.54-4-5.54a4.13,4.13,0,0,0,3-3,3.64,3.64,0,0,0-3.57-4.7h-6.23v.36s1.13.08,1.11.84,0,11.06,0,11.92-.25,1.09-1,1.09v.36h4.31v-.36a1.12,1.12,0,0,1-1.14-1.14c0-1.16,0-12.14,0-12.14h2.34c1,0,2.24.72,2.12,2.81s-1.08,3.15-2.09,3.2a6.78,6.78,0,0,1-1.26,0v.47l4.41,7.16h3.54v-.36S115.23,120.36,114.3,119.28Z" transform="translate(-1.11 -1.36)"></path><path class="cls-3" d="M129.17,119.28c-.93-1.08-4-5.54-4-5.54a4.14,4.14,0,0,0,3-3,3.65,3.65,0,0,0-3.57-4.7h-6.23v.36s1.13.08,1.1.84,0,11.06,0,11.92-.24,1.09-1,1.09v.36h4.3v-.36a1.12,1.12,0,0,1-1.13-1.14c0-1.16,0-12.14,0-12.14H124c1,0,2.24.72,2.12,2.81S125,112.9,124,113a6.69,6.69,0,0,1-1.25,0v.47l4.41,7.16h3.54v-.36S130.11,120.36,129.17,119.28Z" transform="translate(-1.11 -1.36)"></path><path class="cls-3" d="M43,120.22s-1,0-.88-.62c0-.23.58-1.75,1.26-3.57h5.91c.64,1.54,1.15,2.81,1.25,3.15.29,1,.1,1-.64,1v.36h4.31v-.36s-1,.27-1.68-1.61S47.42,106,47.42,106H45.89s-4.46,11.67-4.92,12.8-1.14,1.41-1.51,1.41v.36H43Zm3.16-11.55s1.46,3.4,2.7,6.35H43.78C44.9,112,46.19,108.67,46.19,108.67Z" transform="translate(-1.11 -1.36)"></path><path class="cls-3" d="M72.29,106.37V106H69.24v.36s1.08-.11,1,.39-2.7,9.88-2.7,9.88L64.31,106h-.82l-3.13,10.71-3.1-9.51a.64.64,0,0,1,.72-.84V106H54.34v.36s.55-.27,1,1.14,4,13.07,4,13.07h1l3.18-11.26,3,11.26h1.18l3.78-13.53S71.7,106.37,72.29,106.37Z" transform="translate(-1.11 -1.36)"></path><path class="cls-3" d="M76.69,107.3c0,.75,0,11.12,0,12s-1.13.89-1.13.89v.36h5.71c2.84,0,4.32-2.16,4.27-4.7s-3.65-3.22-3.65-3.22a3.48,3.48,0,0,0,3-3.52c0-2.63-1.73-3.13-3.17-3.13H75.52v.36C76.37,106.37,76.69,106.54,76.69,107.3Zm6.81,9.57c0,1.83-2,2.49-2.74,2.49H78.89v-6C83.07,113.11,83.53,115,83.5,116.87ZM78.84,106.8l1.81,0c1.51,0,2.57,1.82,2.21,3.33a2.87,2.87,0,0,1-2.65,2.24c-.6,0-1.37,0-1.37,0Z" transform="translate(-1.11 -1.36)"></path><path class="cls-3" d="M98,119.26c-.64,0-3.64,0-4.4,0a.74.74,0,0,1-.77-.69v-5.36h5.3v-1.12h-5.3V106.8s4.86,0,5.19,0,.57.83.57.83h.58V106H89.82l0,.36c1.42-.08,1.06.37,1.06,1.35s0,11.49,0,11.9-1.28.6-1.28.6v.36h9.79l.21-2.57h-.44C99,118.72,98.6,119.26,98,119.26Z" transform="translate(-1.11 -1.36)"></path><path class="cls-3" d="M98,140.9c-.93-1.09-4-5.58-4-5.58a4.14,4.14,0,0,0,3-3,3.67,3.67,0,0,0-3.57-4.73H87.24v.36s1.13.08,1.1.85,0,11.12,0,12-.24,1.1-1,1.1v.36h4.3v-.36a1.12,1.12,0,0,1-1.13-1.15c-.05-1.16,0-12.21,0-12.21h2.34c1,0,2.24.72,2.12,2.82s-1.09,3.17-2.1,3.22a6.69,6.69,0,0,1-1.25,0V135L96,142.21h3.54v-.36S99,142,98,140.9Z" transform="translate(-1.11 -1.36)"></path><path class="cls-3" d="M84.7,140.23c-.72-1.88-5.15-12.68-5.15-12.68H78s-4.45,11.74-4.92,12.88-1.13,1.42-1.5,1.42v.36h3.57v-.36s-1,0-.89-.63c0-.23.58-1.75,1.26-3.59h5.91c.64,1.55,1.15,2.82,1.25,3.17.3,1,.1,1-.64,1v.36h4.31v-.36S85.41,142.11,84.7,140.23Zm-8.78-3.62c1.12-3,2.4-6.39,2.4-6.39s1.47,3.42,2.71,6.39Z" transform="translate(-1.11 -1.36)"></path><path class="cls-3" d="M110.31,140.88c-.64,0-3.64,0-4.4,0a.74.74,0,0,1-.77-.69v-5.4h5.3v-1.12h-5.3v-5.32s4.86,0,5.19,0,.57.82.57.82h.57v-1.62h-9.3v.36c1.43-.08,1.07.37,1.07,1.36s0,11.56,0,12-1.28.6-1.28.6v.36h9.78l.22-2.58h-.45C111.34,140.34,111,140.88,110.31,140.88Z" transform="translate(-1.11 -1.36)"></path><path class="cls-3" d="M139.57,106v.41s.89-.1.86.35-3.64,6.07-3.64,6.07-3.35-5.39-3.57-5.69.05-.71.76-.71V106h-4.11v.47a1.76,1.76,0,0,1,1.4.94c.57.93,4.16,6.67,4.16,6.67v5.28c0,.64-.54.86-1.13.91v.34h4.26v-.32a1.09,1.09,0,0,1-1.16-1.1c0-1.16,0-5.16,0-5.16l4.56-7.25a1,1,0,0,1,.93-.35V106Z" transform="translate(-1.11 -1.36)"></path><path class="cls-3" d="M51.77,142.54A39.52,39.52,0,0,0,47.54,138c-1-.8-2.79-.87-4.29-.64a8.79,8.79,0,0,1-.34-2.45c0-3.65,2.11-6.6,4.72-6.6s4.71,3,4.71,6.6a8.28,8.28,0,0,1-1.08,4.22l1.41,1.42a8,8,0,0,0,1.8-5.64c-.08-5.42-3.06-7.63-6.84-7.63S41,130,41,134.92c0,4.22,2.16,7.79,6.68,7.75a7.87,7.87,0,0,0,1.77-.22,17.81,17.81,0,0,0,1.92,2c1.67,1.45,4.66-.36,4.66-.36A4.42,4.42,0,0,1,51.77,142.54Zm-4.14-1c-1.8,0-3.37-1.42-4.16-3.5a3.61,3.61,0,0,1,2.72,1,19.4,19.4,0,0,1,2.33,2.38A3.36,3.36,0,0,1,47.63,141.53Z" transform="translate(-1.11 -1.36)"></path><path class="cls-3" d="M66.25,127.91s1.12,0,1.08.77,0,8.08,0,9.59a3.52,3.52,0,0,1-3.7,3.38c-2.43,0-3-2.07-3.09-3.45s0-8.7,0-9.42,1.15-.87,1.15-.87v-.36H57.13v.36a1.23,1.23,0,0,1,1.44,1.33c-.07,1.51,0,5.35,0,8.21s1.61,5.35,5.15,5.18,5.45-1.7,5.35-5.38,0-6.91,0-8.3,1.15-1,1.15-1v-.36h-4Z" transform="translate(-1.11 -1.36)"></path><circle class="cls-4" cx="115.77" cy="146.47" r="2.8"></circle><path class="cls-3" d="M115.74,147c0-.51,0-.57-.2-.6l-.12,0a.12.12,0,0,1,0-.18c.34,0,.69,0,1.13,0a1.71,1.71,0,0,1,.89.19.86.86,0,0,1,.4.76.8.8,0,0,1-.48.76c-.05,0-.05.06,0,.12a4.31,4.31,0,0,0,.71,1.28.54.54,0,0,0,.31.14.09.09,0,0,1,0,.13.89.89,0,0,1-.36.05.91.91,0,0,1-.88-.54,6.91,6.91,0,0,1-.36-.79.22.22,0,0,0-.24-.18c-.16,0-.17,0-.17.11v.63c0,.47,0,.51.24.55l.12,0a.19.19,0,0,1,0,.18h-1.34a.19.19,0,0,1,0-.18l.13,0c.2,0,.23-.08.23-.55Zm.62.65c0,.18,0,.19.29.19a.39.39,0,0,0,.34-.14.78.78,0,0,0,.17-.55c0-.46-.24-.76-.6-.76-.19,0-.2,0-.2.26Z" transform="translate(-1.11 -1.36)"></path></svg> 